<svg width="11" height="10" viewBox="0 0 11 10" fill="none" xmlns="http://www.w3.org/2000/svg">
<path d="M8.71331 1.21248C8.88939 1.04484 9.12372 0.952167 9.36683 0.954006C9.60995 0.955846 9.84284 1.05206 10.0164 1.22234C10.1899 1.39263 10.2905 1.62366 10.2969 1.8667C10.3033 2.10974 10.2151 2.34577 10.0508 2.52498L5.06331 8.76248C4.97755 8.85485 4.87404 8.92898 4.75897 8.98044C4.64391 9.03189 4.51965 9.05962 4.39362 9.06195C4.2676 9.06429 4.1424 9.04118 4.0255 8.99402C3.90861 8.94686 3.80243 8.87662 3.71331 8.78748L0.405807 5.47998C0.313699 5.39415 0.239821 5.29065 0.188581 5.17566C0.137341 5.06066 0.109789 4.93651 0.107568 4.81064C0.105347 4.68476 0.128503 4.55972 0.175654 4.44299C0.222805 4.32625 0.292986 4.22021 0.38201 4.13118C0.471033 4.04216 0.577075 3.97198 0.69381 3.92483C0.810546 3.87768 0.935582 3.85452 1.06146 3.85674C1.18734 3.85896 1.31148 3.88652 1.42648 3.93776C1.54148 3.989 1.64498 4.06287 1.73081 4.15498L4.34831 6.77123L8.68956 1.23998C8.69737 1.23036 8.70572 1.22118 8.71456 1.21248H8.71331Z" fill="#A7A5A5"/>
</svg>
